<svg xmlns="http://www.w3.org/2000/svg" xmlns:xlink="http://www.w3.org/1999/xlink" width="1000" zoomAndPan="magnify" viewBox="0 0 750 749.999995" height="1000" preserveAspectRatio="xMidYMid meet" version="1.0"><defs><g/></defs><g fill="#000000" fill-opacity="1"><g transform="translate(273.239478, 630.886784)"><g><path d="M -22.890625 -6.234375 C -25.597656 -8.347656 -28.007812 -10.820312 -30.125 -13.65625 L -28.421875 -16.578125 L -2.921875 -1.703125 L -4.625 1.21875 C -6.0625 1.09375 -7.5 0.878906 -8.9375 0.578125 C -10.382812 0.273438 -11.820312 -0.113281 -13.25 -0.59375 L -47.984375 58.953125 C -46.710938 60.140625 -45.597656 61.300781 -44.640625 62.4375 C -43.679688 63.582031 -42.878906 64.660156 -42.234375 65.671875 L -43.9375 68.578125 L -91.015625 41.109375 C -89.421875 38.535156 -87.738281 35.925781 -85.96875 33.28125 C -84.195312 30.644531 -82.34375 28.050781 -80.40625 25.5 L -77.8125 27.015625 L -80.125 40.453125 L -57.734375 53.515625 L -41.046875 24.90625 L -58.421875 14.78125 L -66.859375 19.796875 L -69.171875 18.453125 C -68.410156 16.828125 -67.566406 15.144531 -66.640625 13.40625 C -65.710938 11.664062 -64.738281 9.921875 -63.71875 8.171875 C -62.664062 6.367188 -61.597656 4.613281 -60.515625 2.90625 C -59.441406 1.207031 -58.382812 -0.367188 -57.34375 -1.828125 L -55.03125 -0.484375 L -55.4375 9.65625 L -38.0625 19.78125 Z M -22.890625 -6.234375 "/></g></g></g><g fill="#000000" fill-opacity="1"><g transform="translate(225.805038, 605.511174)"><g><path d="M -57.015625 58.078125 L -78.375 37.6875 L -76.046875 35.25 C -74.554688 35.820312 -73.113281 36.445312 -71.71875 37.125 C -70.332031 37.800781 -68.972656 38.503906 -67.640625 39.234375 L -34.828125 4.84375 C -31.992188 1.875 -29.945312 -0.910156 -28.6875 -3.515625 C -27.4375 -6.117188 -26.851562 -8.609375 -26.9375 -10.984375 C -27.03125 -13.367188 -27.734375 -15.695312 -29.046875 -17.96875 C -30.359375 -20.25 -32.164062 -22.488281 -34.46875 -24.6875 C -38.894531 -28.914062 -43.503906 -30.984375 -48.296875 -30.890625 C -53.085938 -30.796875 -58.15625 -27.945312 -63.5 -22.34375 L -95.515625 11.21875 C -94.648438 12.894531 -93.882812 14.503906 -93.21875 16.046875 C -92.5625 17.597656 -92.023438 19.050781 -91.609375 20.40625 L -93.9375 22.84375 L -111.859375 5.765625 L -109.53125 3.328125 C -107.875 3.722656 -106.257812 4.1875 -104.6875 4.71875 C -103.113281 5.257812 -101.628906 5.925781 -100.234375 6.71875 L -68.0625 -27 C -64.632812 -30.59375 -61.210938 -33.222656 -57.796875 -34.890625 C -54.390625 -36.554688 -51.023438 -37.414062 -47.703125 -37.46875 C -44.390625 -37.519531 -41.125 -36.785156 -37.90625 -35.265625 C -34.695312 -33.753906 -31.609375 -31.585938 -28.640625 -28.765625 C -21.628906 -22.078125 -17.78125 -15.378906 -17.09375 -8.671875 C -16.414062 -1.972656 -19.207031 4.65625 -25.46875 11.21875 L -59.5625 46.953125 C -57.582031 49.484375 -55.957031 52.378906 -54.6875 55.640625 Z M -57.015625 58.078125 "/></g></g></g><g fill="#000000" fill-opacity="1"><g transform="translate(176.09988, 558.514434)"><g><path d="M -70.140625 41.375 L -87.453125 14.640625 L -84.625 12.8125 C -83.03125 13.988281 -81.515625 15.21875 -80.078125 16.5 C -78.648438 17.789062 -77.332031 19.15625 -76.125 20.59375 L -18.15625 -16.921875 L -32.671875 -39.359375 L -52.125 -34.953125 L -53.765625 -37.5 C -52.515625 -38.570312 -51.046875 -39.765625 -49.359375 -41.078125 C -47.671875 -42.398438 -45.898438 -43.734375 -44.046875 -45.078125 C -42.203125 -46.429688 -40.367188 -47.695312 -38.546875 -48.875 C -36.734375 -50.050781 -35.082031 -51.066406 -33.59375 -51.921875 L -1.828125 -2.828125 L -4.65625 -1 C -6.382812 -2.09375 -7.832031 -3.1875 -9 -4.28125 C -10.164062 -5.375 -11.226562 -6.441406 -12.1875 -7.484375 L -70.0625 29.96875 C -69.351562 31.625 -68.765625 33.273438 -68.296875 34.921875 C -67.835938 36.566406 -67.507812 38.109375 -67.3125 39.546875 Z M -70.140625 41.375 "/></g></g></g><g fill="#000000" fill-opacity="1"><g transform="translate(145.387409, 512.754619)"><g><path d="M -77.265625 25.765625 L -88.578125 -4 L -85.421875 -5.203125 C -84.109375 -3.710938 -82.890625 -2.1875 -81.765625 -0.625 C -80.640625 0.925781 -79.628906 2.535156 -78.734375 4.203125 L -14.203125 -20.328125 L -23.703125 -45.328125 L -43.640625 -45.09375 L -44.71875 -47.921875 C -43.269531 -48.710938 -41.582031 -49.578125 -39.65625 -50.515625 C -37.726562 -51.460938 -35.71875 -52.394531 -33.625 -53.3125 C -31.53125 -54.238281 -29.46875 -55.085938 -27.4375 -55.859375 C -25.414062 -56.628906 -23.597656 -57.28125 -21.984375 -57.8125 L -1.203125 -3.15625 L -4.359375 -1.953125 C -5.816406 -3.378906 -7 -4.75 -7.90625 -6.0625 C -8.820312 -7.382812 -9.632812 -8.65625 -10.34375 -9.875 L -74.78125 14.625 C -74.4375 16.40625 -74.210938 18.144531 -74.109375 19.84375 C -74.003906 21.539062 -74.003906 23.113281 -74.109375 24.5625 Z M -77.265625 25.765625 "/></g></g></g><g fill="#000000" fill-opacity="1"><g transform="translate(125.43246, 460.45712)"><g><path d="M -37.28125 -1.75 L -43.015625 -34.015625 L -35.796875 -35.296875 L -30.0625 -3.03125 Z M -37.28125 -1.75 "/></g></g></g><g fill="#000000" fill-opacity="1"><g transform="translate(116.832522, 419.568334)"><g><path d="M -7.875 -17.5 C -6.9375 -18.425781 -6.128906 -19.625 -5.453125 -21.09375 C -4.785156 -22.5625 -4.441406 -24.769531 -4.421875 -27.71875 C -4.398438 -30.195312 -4.707031 -32.519531 -5.34375 -34.6875 C -5.976562 -36.863281 -6.929688 -38.75 -8.203125 -40.34375 C -9.472656 -41.945312 -11.007812 -43.222656 -12.8125 -44.171875 C -14.625 -45.117188 -16.691406 -45.601562 -19.015625 -45.625 C -22.117188 -45.644531 -24.722656 -44.710938 -26.828125 -42.828125 C -28.941406 -40.941406 -30.820312 -38.59375 -32.46875 -35.78125 C -34.125 -32.96875 -35.738281 -29.90625 -37.3125 -26.59375 C -38.894531 -23.28125 -40.765625 -20.210938 -42.921875 -17.390625 C -45.078125 -14.578125 -47.65625 -12.234375 -50.65625 -10.359375 C -53.65625 -8.492188 -57.40625 -7.582031 -61.90625 -7.625 C -65.15625 -7.644531 -68.050781 -8.242188 -70.59375 -9.421875 C -73.144531 -10.609375 -75.300781 -12.273438 -77.0625 -14.421875 C -78.832031 -16.566406 -80.1875 -19.117188 -81.125 -22.078125 C -82.070312 -25.035156 -82.53125 -28.332031 -82.5 -31.96875 C -82.457031 -36.695312 -82.050781 -41.015625 -81.28125 -44.921875 C -80.519531 -48.835938 -79.585938 -51.910156 -78.484375 -54.140625 C -77.160156 -54.128906 -75.625 -54.019531 -73.875 -53.8125 C -72.132812 -53.601562 -70.335938 -53.351562 -68.484375 -53.0625 C -66.628906 -52.78125 -64.832031 -52.476562 -63.09375 -52.15625 C -61.351562 -51.832031 -59.820312 -51.507812 -58.5 -51.1875 L -58.53125 -48.15625 L -74.5 -43.65625 C -75.132812 -42.257812 -75.613281 -40.5 -75.9375 -38.375 C -76.257812 -36.25 -76.429688 -33.984375 -76.453125 -31.578125 C -76.484375 -27.628906 -75.40625 -24.441406 -73.21875 -22.015625 C -71.03125 -19.585938 -67.960938 -18.359375 -64.015625 -18.328125 C -60.835938 -18.296875 -58.15625 -19.222656 -55.96875 -21.109375 C -53.78125 -22.992188 -51.820312 -25.359375 -50.09375 -28.203125 C -48.375 -31.054688 -46.703125 -34.125 -45.078125 -37.40625 C -43.460938 -40.6875 -41.597656 -43.75 -39.484375 -46.59375 C -37.367188 -49.445312 -34.863281 -51.8125 -31.96875 -53.6875 C -29.082031 -55.5625 -25.507812 -56.484375 -21.25 -56.453125 C -17.757812 -56.421875 -14.585938 -55.75 -11.734375 -54.4375 C -8.890625 -53.132812 -6.46875 -51.273438 -4.46875 -48.859375 C -2.46875 -46.441406 -0.941406 -43.484375 0.109375 -39.984375 C 1.160156 -36.492188 1.664062 -32.535156 1.625 -28.109375 C 1.582031 -23.234375 0.96875 -18.863281 -0.21875 -15 C -1.414062 -11.132812 -2.675781 -8.394531 -4 -6.78125 C -5.320312 -6.863281 -6.910156 -7.007812 -8.765625 -7.21875 C -10.628906 -7.425781 -12.546875 -7.675781 -14.515625 -7.96875 C -16.492188 -8.257812 -18.410156 -8.566406 -20.265625 -8.890625 C -22.128906 -9.222656 -23.71875 -9.550781 -25.03125 -9.875 L -25 -12.890625 Z M -7.875 -17.5 "/></g></g></g><g fill="#000000" fill-opacity="1"><g transform="translate(115.732947, 366.322788)"><g><path d="M 11.953125 -50.921875 L 4.484375 -19.125 L 1.203125 -19.890625 C 0.992188 -21.691406 0.859375 -23.492188 0.796875 -25.296875 C 0.742188 -27.109375 0.796875 -29.023438 0.953125 -31.046875 L -66.390625 -46.84375 L -70.453125 -29.546875 L -55.671875 -19.75 L -56.328125 -16.921875 C -57.890625 -17.035156 -59.648438 -17.242188 -61.609375 -17.546875 C -63.566406 -17.859375 -65.554688 -18.191406 -67.578125 -18.546875 C -69.609375 -18.898438 -71.59375 -19.265625 -73.53125 -19.640625 C -75.476562 -20.015625 -77.207031 -20.378906 -78.71875 -20.734375 L -63.28125 -86.5 C -61.769531 -86.144531 -60.082031 -85.707031 -58.21875 -85.1875 C -56.351562 -84.664062 -54.429688 -84.113281 -52.453125 -83.53125 C -50.484375 -82.957031 -48.550781 -82.382812 -46.65625 -81.8125 C -44.757812 -81.25 -43.046875 -80.664062 -41.515625 -80.0625 L -42.203125 -77.125 L -59.78125 -75.03125 L -63.84375 -57.734375 L 3.5 -41.9375 C 4.34375 -43.800781 5.148438 -45.539062 5.921875 -47.15625 C 6.691406 -48.769531 7.609375 -50.28125 8.671875 -51.6875 Z M 11.953125 -50.921875 "/></g></g></g><g fill="#000000" fill-opacity="1"><g transform="translate(128.157416, 305.73651)"><g><path d="M 11.9375 -22.890625 L 0 0 L -3 -1.5625 C -2.800781 -4.613281 -2.328125 -7.515625 -1.578125 -10.265625 L -55.921875 -71.765625 L -54.359375 -74.765625 L 27.171875 -65.40625 C 28.148438 -66.644531 29.160156 -67.84375 30.203125 -69 C 31.253906 -70.164062 32.425781 -71.15625 33.71875 -71.96875 L 36.71875 -70.40625 L 22.953125 -44.015625 L 19.953125 -45.578125 C 20.128906 -47.234375 20.382812 -48.890625 20.71875 -50.546875 C 21.050781 -52.210938 21.445312 -53.800781 21.90625 -55.3125 L -0.625 -58.140625 L -13.46875 -33.515625 L 1.859375 -16.859375 C 3.765625 -19.535156 6.125 -22.066406 8.9375 -24.453125 Z M -17.75 -38.375 L -6.890625 -59.203125 L -32.984375 -62.4375 L -42.890625 -65.09375 L -42.984375 -64.90625 L -35.25 -57.59375 Z M -17.75 -38.375 "/></g></g></g><g fill="#000000" fill-opacity="1"><g transform="translate(159.129908, 244.077709)"><g><path d="M 26.984375 -61.34375 L 29.015625 -63.59375 C 30.878906 -62.414062 33.140625 -60.832031 35.796875 -58.84375 C 38.453125 -56.863281 40.875 -54.78125 43.0625 -52.59375 C 42.976562 -51.101562 42.601562 -49.5625 41.9375 -47.96875 C 41.269531 -46.375 40.46875 -44.769531 39.53125 -43.15625 C 38.59375 -41.550781 37.546875 -39.992188 36.390625 -38.484375 C 35.234375 -36.972656 34.082031 -35.582031 32.9375 -34.3125 C 28.570312 -29.488281 24.054688 -25.738281 19.390625 -23.0625 C 14.722656 -20.394531 9.941406 -18.894531 5.046875 -18.5625 C 0.148438 -18.238281 -4.898438 -19.148438 -10.109375 -21.296875 C -15.328125 -23.453125 -20.640625 -26.972656 -26.046875 -31.859375 C -31.671875 -36.960938 -35.75 -42.066406 -38.28125 -47.171875 C -40.8125 -52.285156 -42.128906 -57.296875 -42.234375 -62.203125 C -42.335938 -67.117188 -41.375 -71.847656 -39.34375 -76.390625 C -37.320312 -80.929688 -34.570312 -85.128906 -31.09375 -88.984375 C -27.65625 -92.773438 -24.523438 -95.738281 -21.703125 -97.875 C -18.878906 -100.019531 -16.09375 -101.628906 -13.34375 -102.703125 C -12.414062 -101.867188 -11.359375 -100.863281 -10.171875 -99.6875 C -8.992188 -98.507812 -7.765625 -97.238281 -6.484375 -95.875 C -5.210938 -94.519531 -3.992188 -93.15625 -2.828125 -91.78125 C -1.671875 -90.414062 -0.625 -89.160156 0.3125 -88.015625 L -1.71875 -85.765625 L -18.1875 -92.5 C -19.101562 -92.1875 -20.28125 -91.347656 -21.71875 -89.984375 C -23.15625 -88.617188 -24.523438 -87.21875 -25.828125 -85.78125 C -28.429688 -82.90625 -30.359375 -79.707031 -31.609375 -76.1875 C -32.859375 -72.675781 -33.25 -68.957031 -32.78125 -65.03125 C -32.320312 -61.101562 -30.929688 -57.046875 -28.609375 -52.859375 C -26.285156 -48.671875 -22.851562 -44.519531 -18.3125 -40.40625 C -14.226562 -36.71875 -10.066406 -33.894531 -5.828125 -31.9375 C -1.585938 -29.976562 2.578125 -28.921875 6.671875 -28.765625 C 10.765625 -28.617188 14.703125 -29.394531 18.484375 -31.09375 C 22.273438 -32.789062 25.78125 -35.421875 29 -38.984375 C 30.71875 -40.878906 32.003906 -42.585938 32.859375 -44.109375 C 33.710938 -45.628906 34.09375 -46.800781 34 -47.625 Z M 26.984375 -61.34375 "/></g></g></g><g fill="#000000" fill-opacity="1"><g transform="translate(201.642314, 195.211635)"><g><path d="M -8.125 -92.34375 L 13.25 -106.578125 L 15.125 -103.78125 C 14.226562 -102.34375 13.296875 -101.019531 12.328125 -99.8125 C 11.359375 -98.613281 10.378906 -97.5 9.390625 -96.46875 L 7.078125 -57.765625 C 10.097656 -56.710938 13.535156 -55.5625 17.390625 -54.3125 C 21.242188 -53.070312 25.25 -51.804688 29.40625 -50.515625 C 33.570312 -49.222656 37.820312 -47.945312 42.15625 -46.6875 C 46.488281 -45.4375 50.675781 -44.296875 54.71875 -43.265625 L 60.90625 -44.03125 L 62.515625 -41.609375 L 50.421875 -33.5625 L 45.578125 -33.6875 C 38.816406 -35.601562 31.828125 -37.882812 24.609375 -40.53125 C 17.398438 -43.1875 10.265625 -45.976562 3.203125 -48.90625 L -1.546875 -45.734375 L 16.625 -18.453125 C 19.925781 -19.921875 22.851562 -20.757812 25.40625 -20.96875 L 27.28125 -18.15625 L 2.8125 -1.875 L 0.9375 -4.6875 C 2.820312 -7.425781 4.957031 -9.957031 7.34375 -12.28125 L -30.859375 -69.671875 C -34.023438 -68.117188 -37.207031 -67.164062 -40.40625 -66.8125 L -42.28125 -69.609375 L -17.8125 -85.890625 L -15.9375 -83.09375 C -16.664062 -81.957031 -17.5 -80.769531 -18.4375 -79.53125 C -19.382812 -78.300781 -20.429688 -77.070312 -21.578125 -75.84375 L -3.734375 -49.03125 L 1.15625 -54.265625 L 2.328125 -91.765625 C 0.828125 -91.222656 -0.628906 -90.757812 -2.046875 -90.375 C -3.472656 -90 -4.875 -89.722656 -6.25 -89.546875 Z M -8.125 -92.34375 "/></g></g></g><g fill="#000000" fill-opacity="1"><g transform="translate(258.834357, 158.800999)"><g/></g></g><g fill="#000000" fill-opacity="1"><g transform="translate(274.384993, 145.843893)"><g><path d="M 76.65625 -91.234375 C 75.019531 -91.160156 73.359375 -91.210938 71.671875 -91.390625 C 69.984375 -91.578125 68.191406 -91.847656 66.296875 -92.203125 L 65.65625 -95.515625 L 91.234375 -100.4375 L 91.875 -97.125 C 89.5 -95.488281 86.9375 -94.007812 84.1875 -92.6875 L 79.34375 -15.28125 L 72.53125 -12.5625 L 42.203125 -71.109375 L 35.84375 -6.90625 L 29.140625 -4.203125 L -5.53125 -75.40625 C -7.125 -75.5 -8.6875 -75.632812 -10.21875 -75.8125 C -11.75 -75.988281 -13.257812 -76.25 -14.75 -76.59375 L -15.390625 -79.90625 L 14.28125 -85.625 L 14.921875 -82.3125 C 13.585938 -81.5 12.203125 -80.695312 10.765625 -79.90625 C 9.335938 -79.125 7.785156 -78.367188 6.109375 -77.640625 L 26.28125 -33.828125 L 31.65625 -19.484375 L 31.875 -19.515625 L 32.96875 -35.359375 L 38.375 -90.265625 L 42.25 -91 L 68.8125 -42.25 L 74.984375 -28.0625 L 75.21875 -28.109375 L 74.921875 -43.671875 Z M 76.65625 -91.234375 "/></g></g></g><g fill="#000000" fill-opacity="1"><g transform="translate(369.359413, 128.803138)"><g><path d="M 66.390625 -75.046875 C 65.992188 -71.972656 65.539062 -68.882812 65.03125 -65.78125 C 64.53125 -62.6875 63.921875 -59.582031 63.203125 -56.46875 L 60.203125 -56.765625 L 56.75 -69.953125 L 31.53125 -72.515625 L 28.4375 -41.875 L 47.296875 -39.953125 L 52.65625 -48.0625 L 55.546875 -47.765625 C 55.242188 -40.085938 54.453125 -32.296875 53.171875 -24.390625 L 50.28125 -24.6875 L 46.6875 -33.9375 L 27.828125 -35.859375 L 24.546875 -3.59375 L 51.140625 -0.890625 L 58.234375 -14.1875 L 61.125 -13.890625 C 61.332031 -10.597656 61.382812 -7.28125 61.28125 -3.9375 C 61.175781 -0.601562 60.875 2.75 60.375 6.125 L 3.359375 0.34375 L 3.703125 -3.015625 C 6.523438 -3.972656 9.78125 -4.578125 13.46875 -4.828125 L 20.421875 -73.40625 C 18.910156 -73.875 17.367188 -74.441406 15.796875 -75.109375 C 14.234375 -75.773438 12.710938 -76.488281 11.234375 -77.25 L 11.578125 -80.609375 Z M 66.390625 -75.046875 "/></g></g></g><g fill="#000000" fill-opacity="1"><g transform="translate(427.434477, 133.377125)"><g><path d="M 3.1875 1.09375 L 4.28125 -2.09375 C 7.6875 -2.476562 10.992188 -2.320312 14.203125 -1.625 L 36.609375 -66.8125 C 35.242188 -67.613281 33.875 -68.515625 32.5 -69.515625 C 31.132812 -70.523438 29.816406 -71.578125 28.546875 -72.671875 L 29.640625 -75.859375 L 41.28125 -71.859375 C 42.6875 -71.367188 44.039062 -70.941406 45.34375 -70.578125 C 46.65625 -70.210938 48.019531 -69.828125 49.4375 -69.421875 C 50.851562 -69.015625 52.378906 -68.570312 54.015625 -68.09375 C 55.648438 -67.625 57.5 -67.035156 59.5625 -66.328125 C 62.488281 -65.316406 65.390625 -64.046875 68.265625 -62.515625 C 71.140625 -60.992188 73.578125 -59.148438 75.578125 -56.984375 C 77.578125 -54.816406 78.9375 -52.28125 79.65625 -49.375 C 80.382812 -46.46875 80.09375 -43.113281 78.78125 -39.3125 C 78.125 -37.394531 77.175781 -35.582031 75.9375 -33.875 C 74.695312 -32.164062 73.1875 -30.691406 71.40625 -29.453125 C 69.625 -28.222656 67.601562 -27.300781 65.34375 -26.6875 C 63.082031 -26.082031 60.609375 -25.910156 57.921875 -26.171875 L 57.765625 -25.734375 C 59.835938 -24.617188 61.800781 -23.25 63.65625 -21.625 C 65.519531 -20 67.039062 -18.144531 68.21875 -16.0625 C 69.394531 -13.976562 70.132812 -11.65625 70.4375 -9.09375 C 70.738281 -6.539062 70.359375 -3.726562 69.296875 -0.65625 C 67.941406 3.3125 65.890625 6.421875 63.140625 8.671875 C 60.398438 10.929688 57.300781 12.492188 53.84375 13.359375 C 50.394531 14.222656 46.726562 14.457031 42.84375 14.0625 C 38.96875 13.675781 35.195312 12.851562 31.53125 11.59375 C 28.96875 10.707031 26.113281 9.597656 22.96875 8.265625 C 19.820312 6.929688 16.742188 5.75 13.734375 4.71875 Z M 34.265625 6.140625 C 36.910156 7.046875 39.523438 7.488281 42.109375 7.46875 C 44.691406 7.445312 47.054688 7.003906 49.203125 6.140625 C 51.347656 5.285156 53.242188 4.015625 54.890625 2.328125 C 56.535156 0.640625 57.757812 -1.375 58.5625 -3.71875 C 59.570312 -6.644531 59.835938 -9.273438 59.359375 -11.609375 C 58.890625 -13.941406 57.878906 -16.007812 56.328125 -17.8125 C 54.785156 -19.613281 52.820312 -21.171875 50.4375 -22.484375 C 48.0625 -23.796875 45.515625 -24.921875 42.796875 -25.859375 L 34.5625 -28.6875 L 24.140625 1.65625 C 25.066406 2.300781 26.21875 2.941406 27.59375 3.578125 C 28.96875 4.222656 31.191406 5.078125 34.265625 6.140625 Z M 42.03125 -32.515625 C 43.28125 -32.085938 44.785156 -31.628906 46.546875 -31.140625 C 48.304688 -30.648438 49.757812 -30.296875 50.90625 -30.078125 C 54.675781 -30.085938 58.085938 -31.019531 61.140625 -32.875 C 64.203125 -34.738281 66.335938 -37.429688 67.546875 -40.953125 C 69.203125 -45.785156 69 -49.910156 66.9375 -53.328125 C 64.882812 -56.742188 61.441406 -59.28125 56.609375 -60.9375 C 54.328125 -61.726562 52.367188 -62.359375 50.734375 -62.828125 C 49.097656 -63.304688 47.738281 -63.648438 46.65625 -63.859375 L 36.53125 -34.40625 Z M 42.03125 -32.515625 "/></g></g></g><g fill="#000000" fill-opacity="1"><g transform="translate(487.986179, 155.464242)"><g/></g></g><g fill="#000000" fill-opacity="1"><g transform="translate(507.832033, 162.615358)"><g><path d="M 2.625 2.125 L 4.75 -0.5 C 7.632812 0.226562 10.6875 1.5 13.90625 3.3125 L 57.1875 -50.34375 C 56.039062 -51.769531 54.988281 -53.1875 54.03125 -54.59375 C 53.082031 -56.007812 52.269531 -57.34375 51.59375 -58.59375 L 53.71875 -61.21875 L 62.953125 -53.78125 C 63.972656 -52.957031 65.195312 -52.015625 66.625 -50.953125 C 68.0625 -49.890625 69.554688 -48.804688 71.109375 -47.703125 C 72.660156 -46.609375 74.148438 -45.554688 75.578125 -44.546875 C 77.015625 -43.546875 78.179688 -42.679688 79.078125 -41.953125 C 89.335938 -33.679688 95.015625 -24.570312 96.109375 -14.625 C 97.203125 -4.6875 93.6875 5.316406 85.5625 15.390625 C 81.71875 20.160156 77.472656 24.03125 72.828125 27 C 68.179688 29.976562 63.28125 31.828125 58.125 32.546875 C 52.96875 33.265625 47.582031 32.75 41.96875 31 C 36.351562 29.257812 30.648438 26.054688 24.859375 21.390625 C 23.953125 20.660156 22.960938 19.789062 21.890625 18.78125 C 20.816406 17.769531 19.679688 16.703125 18.484375 15.578125 C 17.296875 14.460938 16.085938 13.335938 14.859375 12.203125 C 13.640625 11.066406 12.457031 10.039062 11.3125 9.125 Z M 74.015625 -38.265625 C 72.453125 -39.523438 70.929688 -40.722656 69.453125 -41.859375 C 67.984375 -43.003906 66.753906 -43.828125 65.765625 -44.328125 L 21.546875 10.515625 C 21.796875 10.804688 22.296875 11.285156 23.046875 11.953125 C 23.804688 12.617188 24.628906 13.332031 25.515625 14.09375 C 26.398438 14.851562 27.25 15.5625 28.0625 16.21875 C 28.875 16.875 29.46875 17.347656 29.84375 17.640625 C 34 20.992188 38.15625 23.050781 42.3125 23.8125 C 46.476562 24.582031 50.535156 24.394531 54.484375 23.25 C 58.441406 22.113281 62.226562 20.171875 65.84375 17.421875 C 69.46875 14.671875 72.816406 11.394531 75.890625 7.59375 C 78.273438 4.632812 80.332031 1.242188 82.0625 -2.578125 C 83.800781 -6.410156 84.804688 -10.378906 85.078125 -14.484375 C 85.359375 -18.597656 84.671875 -22.710938 83.015625 -26.828125 C 81.367188 -30.953125 78.367188 -34.765625 74.015625 -38.265625 Z M 74.015625 -38.265625 "/></g></g></g><g fill="#000000" fill-opacity="1"><g transform="translate(564.167553, 207.588807)"><g><path d="M 100.171875 -2.125 C 97.648438 -0.320312 95.078125 1.441406 92.453125 3.171875 C 89.835938 4.910156 87.140625 6.578125 84.359375 8.171875 L 82.546875 5.75 L 89.90625 -5.734375 L 74.6875 -26 L 50.0625 -7.515625 L 61.4375 7.640625 L 71.03125 6.109375 L 72.78125 8.4375 C 66.925781 13.414062 60.664062 18.117188 54 22.546875 L 52.25 20.21875 L 56.59375 11.28125 L 45.21875 -3.875 L 19.28125 15.609375 L 35.328125 36.984375 L 49.921875 33.15625 L 51.65625 35.484375 C 49.375 37.878906 46.972656 40.171875 44.453125 42.359375 C 41.929688 44.554688 39.257812 46.613281 36.4375 48.53125 L 2.03125 2.703125 L 4.734375 0.671875 C 7.347656 2.097656 9.992188 4.078125 12.671875 6.609375 L 67.796875 -34.78125 C 67.117188 -36.207031 66.488281 -37.71875 65.90625 -39.3125 C 65.332031 -40.914062 64.832031 -42.523438 64.40625 -44.140625 L 67.09375 -46.171875 Z M 100.171875 -2.125 "/></g></g></g><g fill="#000000" fill-opacity="1"><g transform="translate(600.426467, 252.650854)"><g><path d="M 93.859375 29.015625 C 93.492188 27.160156 93.222656 25.382812 93.046875 23.6875 C 92.878906 21.988281 92.742188 20.320312 92.640625 18.6875 L 95.75 17.375 L 105.953125 41.453125 L 102.84375 42.765625 C 100.832031 41.179688 98.851562 38.988281 96.90625 36.1875 L 17.515625 41.3125 L 13.734375 35.984375 L 72.578125 -21.1875 C 72.335938 -22.75 72.160156 -24.304688 72.046875 -25.859375 C 71.929688 -27.421875 71.851562 -28.945312 71.8125 -30.4375 L 74.921875 -31.75 L 86.953125 -3.375 L 83.84375 -2.0625 C 82.820312 -3.070312 81.757812 -4.226562 80.65625 -5.53125 C 79.5625 -6.832031 78.492188 -8.226562 77.453125 -9.71875 L 36.296875 29.3125 L 28.6875 35.203125 L 28.78125 35.421875 L 38.453125 33.828125 Z M 93.859375 29.015625 "/></g></g></g><g fill="#000000" fill-opacity="1"><g transform="translate(628.005553, 316.43577)"><g><path d="M 89.53125 44.984375 C 86.457031 45.390625 83.359375 45.742188 80.234375 46.046875 C 77.109375 46.347656 73.941406 46.554688 70.734375 46.671875 L 70.265625 43.6875 L 82.140625 36.96875 L 78.171875 11.9375 L 47.765625 16.78125 L 50.734375 35.5 L 59.9375 38.609375 L 60.390625 41.484375 C 52.890625 43.148438 45.15625 44.378906 37.1875 45.171875 L 36.734375 42.296875 L 44.75 36.4375 L 41.78125 17.71875 L 9.75 22.8125 L 13.9375 49.21875 L 28.625 52.65625 L 29.078125 55.53125 C 25.941406 56.570312 22.742188 57.472656 19.484375 58.234375 C 16.234375 58.992188 12.914062 59.5625 9.53125 59.9375 L 0.53125 3.328125 L 3.859375 2.796875 C 5.515625 5.273438 6.929688 8.269531 8.109375 11.78125 L 76.1875 0.96875 C 76.25 -0.613281 76.398438 -2.25 76.640625 -3.9375 C 76.890625 -5.625 77.195312 -7.285156 77.5625 -8.921875 L 80.890625 -9.4375 Z M 89.53125 44.984375 "/></g></g></g><g fill="#000000" fill-opacity="1"><g transform="translate(637.979555, 374.258952)"><g><path d="M 81.03125 8.234375 L 79.125 40.015625 L 75.75 39.8125 C 75.164062 37.914062 74.675781 36.023438 74.28125 34.140625 C 73.894531 32.253906 73.640625 30.375 73.515625 28.5 L 4.59375 24.375 L 3 51.0625 L 21.28125 59.03125 L 21.09375 62.0625 C 19.445312 62.1875 17.554688 62.28125 15.421875 62.34375 C 13.285156 62.414062 11.070312 62.441406 8.78125 62.421875 C 6.488281 62.410156 4.257812 62.335938 2.09375 62.203125 C -0.0625 62.078125 -1.988281 61.921875 -3.6875 61.734375 L -0.203125 3.375 L 3.171875 3.578125 C 3.898438 5.472656 4.410156 7.207031 4.703125 8.78125 C 5.003906 10.351562 5.226562 11.847656 5.375 13.265625 L 74.1875 17.375 C 74.601562 15.613281 75.113281 13.929688 75.71875 12.328125 C 76.320312 10.722656 76.96875 9.289062 77.65625 8.03125 Z M 81.03125 8.234375 "/></g></g></g><g fill="#000000" fill-opacity="1"><g transform="translate(637.372744, 428.21244)"><g><path d="M 36.921875 18.1875 C 42.679688 20.007812 47.765625 22.492188 52.171875 25.640625 C 56.578125 28.796875 60.09375 32.4375 62.71875 36.5625 C 65.351562 40.695312 66.976562 45.257812 67.59375 50.25 C 68.207031 55.238281 67.632812 60.503906 65.875 66.046875 C 64.113281 71.585938 61.539062 76.222656 58.15625 79.953125 C 54.78125 83.679688 50.828125 86.46875 46.296875 88.3125 C 41.765625 90.15625 36.789062 91.085938 31.375 91.109375 C 25.957031 91.140625 20.367188 90.242188 14.609375 88.421875 C 8.847656 86.585938 3.765625 84.097656 -0.640625 80.953125 C -5.046875 77.804688 -8.566406 74.171875 -11.203125 70.046875 C -13.847656 65.921875 -15.472656 61.363281 -16.078125 56.375 C -16.679688 51.382812 -16.101562 46.117188 -14.34375 40.578125 C -12.582031 35.035156 -10.015625 30.398438 -6.640625 26.671875 C -3.273438 22.941406 0.675781 20.148438 5.21875 18.296875 C 9.757812 16.453125 14.738281 15.515625 20.15625 15.484375 C 25.570312 15.453125 31.160156 16.351562 36.921875 18.1875 Z M 33.15625 30.03125 C 28.425781 28.53125 23.816406 27.613281 19.328125 27.28125 C 14.835938 26.957031 10.722656 27.300781 6.984375 28.3125 C 3.242188 29.320312 -0.00390625 31.050781 -2.765625 33.5 C -5.535156 35.957031 -7.578125 39.257812 -8.890625 43.40625 C -10.085938 47.164062 -10.226562 50.734375 -9.3125 54.109375 C -8.394531 57.492188 -6.671875 60.582031 -4.140625 63.375 C -1.609375 66.164062 1.59375 68.6875 5.46875 70.9375 C 9.34375 73.195312 13.644531 75.078125 18.375 76.578125 C 23.101562 78.078125 27.707031 79.007812 32.1875 79.375 C 36.664062 79.738281 40.769531 79.414062 44.5 78.40625 C 48.238281 77.40625 51.492188 75.675781 54.265625 73.21875 C 57.035156 70.757812 59.078125 67.460938 60.390625 63.328125 C 61.679688 59.265625 61.875 55.523438 60.96875 52.109375 C 60.0625 48.691406 58.335938 45.601562 55.796875 42.84375 C 53.253906 40.082031 50.023438 37.628906 46.109375 35.484375 C 42.203125 33.347656 37.882812 31.53125 33.15625 30.03125 Z M 33.15625 30.03125 "/></g></g></g><g fill="#000000" fill-opacity="1"><g transform="translate(614.815159, 500.213548)"><g><path d="M -7.65625 23.625 C -8.976562 25.269531 -10.347656 26.742188 -11.765625 28.046875 C -13.191406 29.347656 -14.59375 30.519531 -15.96875 31.5625 L -18.828125 29.765625 L -1.796875 2.859375 L 1.0625 4.65625 C 0.875 6.375 0.507812 8.023438 -0.03125 9.609375 C -0.570312 11.191406 -1.128906 12.722656 -1.703125 14.203125 L 56.546875 51.0625 C 57.773438 49.71875 59.015625 48.523438 60.265625 47.484375 C 61.523438 46.453125 62.804688 45.476562 64.109375 44.5625 L 66.96875 46.375 L 61.375 55.203125 C 59.707031 57.828125 58.035156 60.757812 56.359375 64 C 54.679688 67.238281 52.953125 70.269531 51.171875 73.09375 C 49.128906 76.300781 46.789062 79.222656 44.15625 81.859375 C 41.519531 84.503906 38.625 86.503906 35.46875 87.859375 C 32.320312 89.210938 28.921875 89.765625 25.265625 89.515625 C 21.617188 89.273438 17.765625 87.867188 13.703125 85.296875 C 9.847656 82.859375 7.019531 80.015625 5.21875 76.765625 C 3.425781 73.523438 2.441406 70.082031 2.265625 66.4375 C 2.085938 62.800781 2.601562 59.117188 3.8125 55.390625 C 5.03125 51.660156 6.71875 48.09375 8.875 44.6875 C 9.082031 44.351562 9.398438 43.84375 9.828125 43.15625 C 10.265625 42.46875 10.75 41.738281 11.28125 40.96875 C 11.8125 40.207031 12.335938 39.488281 12.859375 38.8125 C 13.378906 38.132812 13.78125 37.648438 14.0625 37.359375 Z M 47.359375 67.796875 C 48.359375 66.222656 49.132812 64.921875 49.6875 63.890625 C 50.238281 62.867188 50.703125 61.835938 51.078125 60.796875 L 19.265625 40.65625 C 18.921875 40.90625 18.535156 41.332031 18.109375 41.9375 C 17.679688 42.539062 17.21875 43.160156 16.71875 43.796875 C 16.21875 44.441406 15.757812 45.09375 15.34375 45.75 C 14.9375 46.40625 14.609375 46.929688 14.359375 47.328125 C 12.910156 49.617188 11.851562 51.976562 11.1875 54.40625 C 10.519531 56.832031 10.382812 59.25 10.78125 61.65625 C 11.1875 64.0625 12.148438 66.382812 13.671875 68.625 C 15.191406 70.863281 17.421875 72.914062 20.359375 74.78125 C 25.734375 78.1875 30.726562 79.210938 35.34375 77.859375 C 39.957031 76.515625 43.960938 73.160156 47.359375 67.796875 Z M 47.359375 67.796875 "/></g></g></g><g fill="#000000" fill-opacity="1"><g transform="translate(583.565297, 551.408348)"><g><path d="M 15.703125 98.953125 C 13.566406 96.703125 11.460938 94.394531 9.390625 92.03125 C 7.328125 89.664062 5.316406 87.21875 3.359375 84.6875 L 5.5 82.5625 L 17.875 88.28125 L 35.890625 70.453125 L 14.234375 48.578125 L 0.75 61.921875 L 3.578125 71.203125 L 1.515625 73.234375 C -4.210938 68.117188 -9.722656 62.554688 -15.015625 56.546875 L -12.953125 54.515625 L -3.5 57.609375 L 9.984375 44.265625 L -12.84375 21.21875 L -31.859375 40.03125 L -26.09375 53.96875 L -28.15625 56.015625 C -30.832031 54.066406 -33.425781 51.988281 -35.9375 49.78125 C -38.445312 47.582031 -40.84375 45.21875 -43.125 42.6875 L -2.40625 2.375 L -0.03125 4.78125 C -1.070312 7.5625 -2.675781 10.453125 -4.84375 13.453125 L 43.65625 62.453125 C 44.976562 61.578125 46.394531 60.75 47.90625 59.96875 C 49.414062 59.1875 50.9375 58.46875 52.46875 57.8125 L 54.84375 60.203125 Z M 15.703125 98.953125 "/></g></g></g><g fill="#000000" fill-opacity="1"><g transform="translate(543.333108, 593.345865)"><g><path d="M -17.359375 17.765625 C -19.085938 18.359375 -20.757812 18.894531 -22.375 19.375 C -23.988281 19.851562 -25.613281 20.234375 -27.25 20.515625 L -29 17.625 L -2.890625 1.75 L -1.140625 4.640625 C -2.179688 6.179688 -3.265625 7.519531 -4.390625 8.65625 C -5.515625 9.800781 -6.660156 10.90625 -7.828125 11.96875 L 27.96875 70.875 C 29.894531 70.15625 31.648438 69.609375 33.234375 69.234375 C 34.816406 68.867188 36.273438 68.59375 37.609375 68.40625 L 39.359375 71.296875 L 30.640625 76.609375 C 27.984375 78.222656 25.164062 80.117188 22.1875 82.296875 C 19.207031 84.472656 16.222656 86.46875 13.234375 88.28125 C 9.992188 90.25 6.738281 91.722656 3.46875 92.703125 C 0.207031 93.679688 -2.925781 94 -5.9375 93.65625 C -8.957031 93.320312 -11.789062 92.28125 -14.4375 90.53125 C -17.082031 88.78125 -19.453125 86.179688 -21.546875 82.734375 C -24.484375 77.898438 -25.640625 73.117188 -25.015625 68.390625 C -24.398438 63.660156 -22.332031 59.273438 -18.8125 55.234375 C -24.394531 52.453125 -30.085938 49.789062 -35.890625 47.25 C -41.703125 44.707031 -47.625 42.28125 -53.65625 39.96875 L -60.78125 40.328125 L -62.296875 37.84375 L -50.28125 30.546875 L -44.8125 31.03125 C -41.539062 32.226562 -38.46875 33.46875 -35.59375 34.75 C -32.726562 36.039062 -29.9375 37.429688 -27.21875 38.921875 C -24.507812 40.410156 -21.859375 41.972656 -19.265625 43.609375 C -16.679688 45.253906 -13.988281 47.039062 -11.1875 48.96875 L -1.859375 43.296875 Z M 12.296875 81.765625 C 13.878906 80.804688 15.160156 79.976562 16.140625 79.28125 C 17.128906 78.59375 17.992188 77.890625 18.734375 77.171875 L 0.6875 47.46875 L -6.46875 51.8125 C -11.039062 54.582031 -13.78125 58.242188 -14.6875 62.796875 C -15.601562 67.347656 -14.613281 72.003906 -11.71875 76.765625 C -8.738281 81.671875 -5.117188 84.414062 -0.859375 85 C 3.398438 85.582031 7.785156 84.503906 12.296875 81.765625 Z M 12.296875 81.765625 "/></g></g></g></svg>